<svg xmlns="http://www.w3.org/2000/svg" xml:space="preserve" width="10mm" height="10mm" viewBox="0 0 10 10"><g style="stroke-width:1.70702;stroke-dasharray:none"><path d="M3883.683-404.4046a4.275148 4.275148 0 0 0-2.8219 8.06891M3880.8611-396.33569a4.308045 4.308045 0 0 0 6.5815 5.5003M3887.4426-390.83539a4.308045 4.308045 0 0 0 6.9049-5.15224M3891.8767-404.46547a4.105911 4.105911 0 0 0-8.1937.0609" style="fill:none;stroke:#000;stroke-width:1.70702;stroke-linecap:round;stroke-dasharray:none" transform="matrix(.4635351 0 0 .4635351 -1797.2225986 189.80131173)"/></g><g style="stroke-width:1.2032;stroke-dasharray:none"><path d="M4126.5665-273.27417a1.715592 1.715592 0 0 0-3.4311 0 1.715592 1.715592 0 0 0 3.4311 0z" style="fill:none;stroke:#000;stroke-width:1.05564;stroke-linecap:round;stroke-dasharray:none" transform="translate(-2761.08789582 188.25519787) scale(.670591)"/><path d="M3894.3475-395.98762a4.433312 4.433312 0 1 0-2.4708-8.47785" style="fill:none;stroke:#000;stroke-width:1.70702;stroke-linecap:round;stroke-dasharray:none" transform="matrix(.4635351 0 0 .4635351 -1797.22257156 189.80131215)"/></g></svg>