<svg xmlns="http://www.w3.org/2000/svg" xml:space="preserve" width="10mm" height="10mm" viewBox="0 0 10 10"><g style="stroke-width:1.2032;stroke-dasharray:none"><g style="stroke-width:1.2032;stroke-dasharray:none"><path d="M4105.4258-276.88a1.5245112 1.5245112 0 0 0-3.049 0 1.5245112 1.5245112 0 0 0 3.049 0z" style="fill:none;stroke:#000;stroke-width:.93806;stroke-linecap:round;stroke-dasharray:none" transform="matrix(.6730489 0 0 .6730489 -2757.12604105 195.01594919)"/><path d="M4103.9338-278.58116v-4.206" style="fill:none;stroke:#000;stroke-width:1.2032;stroke-linecap:round;stroke-dasharray:none" transform="matrix(.6730489 0 0 .6730489 -2757.12604105 195.01594919)"/></g><path d="M4105.5048-284.33695a1.52485 1.52485 0 0 0-3.0497 0 1.52485 1.52485 0 0 0 3.0497 0zM4105.5048-287.6522a1.52485 1.52485 0 0 0-3.0497 0 1.52485 1.52485 0 0 0 3.0497 0z" style="fill:none;stroke:#000;stroke-width:.938259;stroke-linecap:round;stroke-dasharray:none" transform="matrix(.6730489 0 0 .6730489 -2757.17899882 194.94602815)"/></g></svg>